<svg xmlns="http://www.w3.org/2000/svg" viewBox="0 0 215.89 298"><defs><style>.cls-1{fill:#fff;}</style></defs><title>classic</title><g id="Layer_2" data-name="Layer 2"><g id="Layer_1-2" data-name="Layer 1"><path class="cls-1" d="M151.53,0c2.92,1.57,4,4,4.26,7.32,2,21.62,4.16,43.22,6.32,64.82a5.48,5.48,0,0,0,1.23,3.09c3.25,3.32,6.66,6.48,10.31,10L186,77.35c4.88-3.11,7.55-2.55,10.62,2.24,3.4,5.31,6.81,10.6,10.16,15.94,2.43,3.88,1.77,6.89-2.07,9.39-4.22,2.75-8.52,5.37-12.7,8.18a3,3,0,0,0-1.19,2.42c1.2,4.48,2.63,8.89,4.08,13.62,4.58,0,9.31,0,14,0s6.82,2,6.87,6.68q.12,9.9,0,19.79c-.05,4.79-2.17,6.77-7.06,6.8-4.07,0-8.15,0-12.22.05a1.9,1.9,0,0,0-.53.15c-1.24,5.07-2.25,10.2-3.76,15.18a98.39,98.39,0,0,1-28,44.16,7.57,7.57,0,0,0-2.16,4.4c-2.25,22-4.35,44-6.52,66-.37,3.82-2.7,5.65-7.05,5.66H71.71c-7.95,0-15.9,0-23.86,0-4.53,0-6.54-1.9-7-6.37q-3.21-33-6.5-66a5.9,5.9,0,0,0-1.76-3.43C8.89,200.13-2.14,172.88.34,140.61c2-25.32,12.83-46.63,31.43-63.93A8.15,8.15,0,0,0,34.59,71c1.75-18.92,3.64-37.82,5.5-56.73.23-2.41.68-4.82.69-7.23A7.57,7.57,0,0,1,45,0ZM185,149A86.72,86.72,0,1,0,98.1,235.72,86.81,86.81,0,0,0,185,149ZM52,286.16h92.5c.31-3.24.59-6.31.91-9.7h-27.8c-9.32,0-18.63,0-27.94,0-4.54,0-7.28-3.32-6.25-7.36.7-2.77,3-4.25,6.76-4.26h56.42c1-10.78,2.06-21.13,3.09-31.73-34.42,19.12-68.55,19.06-102.88,0C48.56,250.91,50.28,268.45,52,286.16ZM144.52,11.82H52l-.91,9.72h24c10.57,0,21.14,0,31.72,0,4.55,0,7.28,3.3,6.27,7.34-.7,2.78-3,4.28-6.76,4.28H49.92C48.87,43.94,47.86,54.3,46.83,64.9c34.41-19.1,68.55-19.1,102.88,0C148,47.09,146.25,29.55,144.52,11.82ZM189,89.25c-3,1.91-5.72,3.66-8.62,5.5l5.17,8.63,8.84-5.67Zm7.64,61.36H204V141h-7.37Z"/><path class="cls-1" d="M98.32,223.26A74.38,74.38,0,0,1,24,149.11c-.05-41,33.41-74.5,74.33-74.37a74.26,74.26,0,0,1,0,148.52Zm-62-68.19c1.26,28.09,27.12,54.67,55.92,55.89,1-6.84,2.13-8.91,5.65-8.94,6.23,0,6.22,4.8,6.42,9.15,33.21-2.77,55.14-31.67,56-56.12-6.79-.81-8.88-2.19-9-5.93s2-5.27,9-6.2c-1.36-28.45-27.44-54.74-55.93-55.89-.94,6.9-2.28,8.91-6,9s-5.14-1.94-6.23-9c-29.06,1.32-54.73,28.12-55.88,55.93,6.81.83,8.89,2.2,9,5.92S43.25,154.16,36.27,155.07Z"/><path class="cls-1" d="M67.37,264.84a5.8,5.8,0,1,1,0,11.6,5.8,5.8,0,0,1,0-11.6Z"/><path class="cls-1" d="M134.81,27.29a5.7,5.7,0,0,1-5.58,5.86,5.8,5.8,0,1,1-.14-11.6A5.72,5.72,0,0,1,134.81,27.29Z"/><path class="cls-1" d="M104.09,143.18c5.6,0,10.72,0,15.84,0,4.25,0,6.75,2.26,6.69,5.92-.06,3.51-2.53,5.68-6.63,5.69q-10.45.06-20.91,0c-4.29,0-6.56-2.1-6.59-6.36q-.13-16.56,0-33.11c0-3.82,2.46-6.34,5.76-6.35s5.76,2.47,5.8,6.3c.1,8,0,16.07,0,24.1Z"/></g></g></svg>