<svg xmlns="http://www.w3.org/2000/svg" viewBox="0 0 192.6 298"><defs><style>.cls-1{fill:#c25412;}</style></defs><title>heritage</title><g id="Layer_2" data-name="Layer 2"><g id="Layer_1-2" data-name="Layer 1"><path class="cls-1" d="M14.63,31.68C7.21,30.42,1.8,26.49.29,18.41A15.66,15.66,0,0,1,14.53.08c.87-.06,1.75,0,2.62,0Q96.29,0,175.44,0c5.75,0,10.55,1.75,14,6.42a15.67,15.67,0,0,1-7.83,24.34c-1.3.41-2.64.68-4,1-.4,6.6-.57,13.2-1.25,19.74-1.88,18.11-8.39,33.9-22.64,46.1-8.51,7.29-16.65,15.06-24.57,23a84.45,84.45,0,0,0-10.91,13.71c-6.2,9.58-6.49,19.77,0,29.17a150.5,150.5,0,0,0,16.39,19.31c6.61,6.78,13.73,13.07,20.86,19.32,11.74,10.31,17.79,23.56,20,38.66,1.24,8.35,1.61,16.82,2.4,25.51,7.25,1.24,12.76,5.08,14.32,13.13A15.66,15.66,0,0,1,177.86,298c-.74.05-1.49,0-2.24,0H17C8.37,298,2.05,293.23.42,285.7c-2.06-9.52,3.51-17.06,14.87-19.52,0-2.06,0-4.25,0-6.44a106.74,106.74,0,0,1,4.86-32c3.58-11.64,11.1-20.43,19.93-28.4,7.77-7,15.58-14,22.91-21.5a91.67,91.67,0,0,0,11.73-14.95c5.78-9.13,5.92-18.93-.14-27.84a150.4,150.4,0,0,0-16.52-19.68c-6.57-6.81-13.7-13.1-20.85-19.33C25.44,85.73,19.32,72.52,17.06,57.42,15.81,49.07,15.44,40.59,14.63,31.68Zm75.28,117c-.49,2.91-.82,6.14-1.61,9.24C85.51,168.84,78.73,177.34,71,185q-12.9,12.75-26.49,24.8C27.72,224.67,26.22,244.42,25.8,265.4c1.77-1,2.93-1.68,4-2.39,20.27-12.95,40.6-25.81,60.74-39,4.19-2.74,7.35-2.71,11.48.07,20.36,13.71,40.89,27.18,61.36,40.72.89.59,1.84,1.06,3.59,2.05-.42-7.09-.56-13.41-1.22-19.68-1.64-15.69-7.41-29.3-20-39.62-6.35-5.22-12.28-11-18.23-16.66-12.34-11.82-24.12-24-24.76-42.23ZM166.56,31.79H26a102.48,102.48,0,0,0,3.72,33.45c.55,2,1.61,2.41,3.49,2.41q63-.08,126,0c2.11,0,3.08-.64,3.65-2.69A102.57,102.57,0,0,0,166.56,31.79Zm-9.88,46.95H35.78c1.57,1.81,2.52,3.12,3.67,4.21,7.4,7,14.81,14.1,22.29,21.06,9.24,8.6,18,17.5,24.08,28.83,4.12,7.7,17.12,7.24,21.33-.62,4.6-8.59,10.79-15.85,17.74-22.51,9.17-8.81,18.52-17.43,27.74-26.19A61.58,61.58,0,0,0,156.68,78.74ZM96.26,21h77.81c1.37,0,3.15.33,4-.37,1.54-1.3,3.4-3.22,3.48-4.95.07-1.51-1.9-3.41-3.41-4.58-.9-.7-2.64-.41-4-.41q-77.8,0-155.62,0a18.58,18.58,0,0,0-3,.08c-3,.47-4.8,2.09-4.73,5.25.06,3,1.88,4.5,4.66,4.93a22.13,22.13,0,0,0,3.36.08Zm0,256.11H19.2a31.36,31.36,0,0,0-3.36,0c-3,.3-4.89,1.8-5.05,4.95-.16,2.94,1.83,5,5.1,5.3a25.21,25.21,0,0,0,2.61,0H174.13a15.66,15.66,0,0,0,3.36-.15c2.76-.59,4.4-2.28,4.31-5.24-.1-2.78-1.76-4.32-4.36-4.82a20.15,20.15,0,0,0-3.73-.12Zm49.44-10.76a19,19,0,0,0-1.6-1.41c-15.26-10.12-30.55-20.19-45.76-30.39-1.88-1.25-3.09-.68-4.66.33q-23.1,14.85-46.27,29.61c-.68.43-1.29,1-2.44,1.86Z" transform="translate(0)"/><path class="cls-1" d="M106,191.29a4.7,4.7,0,1,1-9.39,0,4.6,4.6,0,0,1,4.5-4.63A4.74,4.74,0,0,1,106,191.29Z" transform="translate(0)"/><path class="cls-1" d="M88.86,209.14a4.58,4.58,0,0,1-5.24,4.12c-2.86-.57-4.31-2.44-3.92-5.38s2.31-4.06,5-3.95A4.59,4.59,0,0,1,88.86,209.14Z" transform="translate(0)"/><path class="cls-1" d="M97.26,164.88c1,1.41,2.59,2.71,2.91,4.27.44,2.22-1.16,4.17-3.42,3.72-1.51-.29-3.55-2.08-3.78-3.46s1.63-3,2.56-4.45Z" transform="translate(0)"/></g></g></svg>