<svg xmlns="http://www.w3.org/2000/svg" viewBox="0 0 275.55 298"><defs><style>.cls-1{fill:#fcac47;}</style></defs><title>sport</title><g id="Layer_2" data-name="Layer 2"><g id="Layer_1-2" data-name="Layer 1"><path class="cls-1" d="M104.43,48.63V31.35H90.79c-5.4,0-7.09-1.66-7.11-6.94q0-8.81,0-17.63C83.7,1.83,85.45,0,90.29,0h70.52c4.51,0,6.4,1.86,6.43,6.29q.06,9.31,0,18.62c0,4.62-1.88,6.4-6.62,6.43s-9.3,0-14.14,0c0,.94-.11,1.56-.12,2.19V48.76a125.77,125.77,0,0,1,62.72,30.31L222,66c-2-1.89-4.26-4-6.45-6.2-3-3-3-5.72,0-8.75q6.75-6.87,13.64-13.6c2.78-2.71,5.48-2.75,8.28,0q18.06,18,36,36c2.76,2.78,2.74,5.48,0,8.3q-6.81,7-13.82,13.89c-2.88,2.82-5.59,2.73-8.53-.15-2.18-2.13-4.25-4.36-6.2-6.36L230.6,103.87c21.66,35.22,26.76,73.13,12,112.76-12.55,33.71-36,57.58-69.14,71.63C107.89,316.05,31.34,282.13,7.4,214.71-19.51,138.94,30.17,60.31,104.43,48.63ZM10.55,172.32c-.08,63.11,51.32,115,114,115.1,64.05.09,115.73-51,115.87-114.51A115,115,0,0,0,125.44,57.49C62.24,57.35,10.62,108.94,10.55,172.32ZM156.66,10.67H94.38V20.74h62.28Zm70.1,44.49L255.44,83.7l6.75-6.22-29-29.07Zm-91-23.61h-20.6V47.21h20.6ZM223.43,94.3c4.55-4.52,8.85-8.8,13.2-13.11l-6.84-6.93L217.19,87Z" transform="translate(0 0)"/><path class="cls-1" d="M125.52,271.73c-54.06.31-99-44.13-99.3-98.24C25.9,118.3,70,73.42,124.75,73.17a99.3,99.3,0,0,1,100,98.89C225,226.89,180.71,271.41,125.52,271.73Zm88.62-104.5c-2.82-49.81-45.23-82.51-83.45-82.94,0,4.77,0,9.54,0,14.31,0,2.84-1.17,4.86-3.91,5.71-3.27,1-6.42-1.53-6.5-5.33-.11-5,0-9.93,0-14.91-46.84,2.29-81.9,42-83,83.16h12c1.09,0,2.18-.06,3.26,0a5.19,5.19,0,1,1-.42,10.37c-5,.1-10,0-14.93,0,1.68,44.83,39.74,81.86,83.07,83.34,0-4.44,0-8.88,0-13.32a16,16,0,0,1,.17-3.25,5.18,5.18,0,0,1,10.23,1.4c.1,5.08,0,10.17,0,15.26,46.92-2.05,82.4-42.23,83.23-83.42-4.66,0-9.32,0-14,0-4.12,0-6.51-1.94-6.53-5.2s2.37-5.21,6.49-5.23C204.55,167.21,209.21,167.23,214.14,167.23Z" transform="translate(0 0)"/><path class="cls-1" d="M130.69,149.27q0,13.54,0,27.1c0,4.11-2,6.51-5.22,6.51s-5.2-2.4-5.21-6.52q0-27.44,0-54.86c0-4.12,2-6.51,5.22-6.5s5.2,2.39,5.21,6.51Q130.71,135.39,130.69,149.27Z" transform="translate(0 0)"/></g></g></svg>